<svg version="1.2" baseProfile="tiny-ps"
    xmlns="http://www.w3.org/2000/svg" viewBox="0 0 197 40" width="250" height="102">
    <title>sign-in-with-google-sketch-svg</title>
    <style>tspan { white-space:pre }.shp0 { fill: #4285f4 } .shp1 { fill: #ffffff } .shp2 { fill: #34a853 } .shp3 { fill: #fbbc05 } .shp4 { fill: #eb4335 } .txt5 { font-size: 14px;fill: #ffffff;font-weight: 500;font-family: "Roboto-Medium", "Roboto" } </style>
    <g >
        <g >
            <path class="shp0" d="M1 2C1 0.9 1.9 0 3 0L195 0C196.1 0 197 0.9 197 2L197 38C197 39.1 196.1 40 195 40L3 40C1.9 40 1 39.1 1 38L1 2Z" />
            <path class="shp1" d="M2 3C2 1.9 2.9 1 4 1L38 1C39.1 1 40 1.9 40 3L40 37C40 38.1 39.1 39 38 39L4 39C2.9 39 2 38.1 2 37L2 3Z" />
            <g >
                <path class="shp0" d="M30.53 20.19C30.53 19.37 30.47 18.77 30.32 18.15L20.97 18.15L20.97 21.85L26.46 21.85C26.35 22.77 25.75 24.15 24.42 25.08L24.4 25.21L27.36 27.5L27.57 27.52C29.45 25.78 30.53 23.22 30.53 20.19Z" />
                <path class="shp2" d="M20.97 29.93C23.66 29.93 25.92 29.05 27.57 27.52L24.42 25.08C23.58 25.67 22.45 26.08 20.97 26.08C18.33 26.08 16.09 24.34 15.3 21.94L15.18 21.95L12.1 24.33L12.06 24.44C13.7 27.69 17.07 29.93 20.97 29.93Z" />
                <path class="shp3" d="M15.3 21.94C15.09 21.32 14.96 20.65 14.96 19.97C14.96 19.28 15.09 18.61 15.29 17.99L15.28 17.86L12.16 15.44L12.06 15.49C11.39 16.84 11 18.36 11 19.97C11 21.57 11.39 23.09 12.06 24.44L15.3 21.94Z" />
                <path class="shp4" d="M20.97 13.85C22.84 13.85 24.1 14.66 24.82 15.34L27.63 12.59C25.9 10.99 23.66 10 20.97 10C17.07 10 13.7 12.24 12.06 15.49L15.29 17.99C16.09 15.59 18.33 13.85 20.97 13.85Z" />
            </g>
            <text style="transform: matrix(1,0,0,1,51,25)">
                <tspan x="0" y="0" class="txt5">Sign in with Google</tspan>
            </text>
        </g>
    </g>
</svg>